<svg width="151" height="150" viewBox="0 0 151 150" fill="none" xmlns="http://www.w3.org/2000/svg">
<path d="M60.9821 90C60.9821 99.9411 69.0409 108 78.9821 108L120.301 108C123.062 108 125.301 105.761 125.301 103L125.301 69C125.301 63.4772 120.823 59 115.301 59L65.982 59C63.2206 59 60.9821 61.2386 60.9821 64L60.9821 90Z" fill="#DCD5DC"/>
<path d="M90.5686 69.8482V64.1518C90.5686 63.0351 89.4041 62.1299 87.9676 62.1299H85.165C84.0444 62.1299 83.0502 61.5717 82.6979 60.7448C82.3055 59.8235 81.8288 58.9322 81.2749 58.0763C80.7704 57.2967 80.9635 56.3542 81.7572 55.7371L83.7401 54.1957C84.7558 53.406 84.7558 52.1259 83.7401 51.3362L78.5586 47.3082C77.5428 46.5186 75.896 46.5186 74.8803 47.3082L72.8974 48.8497C72.1036 49.4668 70.8912 49.6168 69.8884 49.2246C68.7873 48.7941 67.6407 48.4234 66.4557 48.1184C65.3919 47.8446 64.6739 47.0716 64.6739 46.2005V44.0219C64.6739 42.9052 63.5095 42 62.073 42H54.7453C53.3088 42 52.1444 42.9052 52.1444 44.0219V46.2006C52.1444 47.0717 51.4264 47.8447 50.3626 48.1185C49.1776 48.4235 48.0309 48.7942 46.9299 49.2247C45.9271 49.6169 44.7147 49.4668 43.9209 48.8498L41.938 47.3083C40.9223 46.5187 39.2755 46.5187 38.2597 47.3083L33.0785 51.3363C32.0627 52.126 32.0627 53.4061 33.0785 54.1958L35.0614 55.7372C35.8551 56.3543 36.0481 57.2968 35.5437 58.0764C34.9898 58.9323 34.513 59.8236 34.1207 60.7449C33.8717 61.3293 33.3021 61.7794 32.594 61.9932C32.3001 62.0819 32.1116 62.2305 31.7829 62.2305H28.9804C27.5439 62.2305 26.3794 63.1357 26.3794 64.2524V69.7476C26.3794 70.8643 27.5439 71.7695 28.9804 71.7695H31.7829C32.9035 71.7695 33.8978 72.4283 34.2501 73.2552C34.6425 74.1765 35.1192 75.0677 35.6731 75.9237C36.1776 76.7033 35.9845 77.6458 35.1908 78.2629L33.3373 79.8043C32.3216 80.594 32.3216 81.8741 33.3373 82.6638L38.26 86.4905C39.2757 87.2802 40.9225 87.2802 41.9383 86.4905L43.9212 84.9491C44.7149 84.332 45.9273 84.182 46.9302 84.5741C48.0312 85.0047 49.4366 85.476 50.6217 85.781C51.6855 86.0548 52.4034 86.8278 52.4034 87.6989V89.8776C52.4034 90.9943 53.5679 91.8995 55.0044 91.8995H61.9438C63.3803 91.8995 64.5448 90.9943 64.5448 89.8776V87.6989C64.5448 87.4434 64.7359 87.2969 64.8501 87.0684C65.1251 86.5179 65.7042 86.0752 66.4558 85.8816C67.6409 85.5766 68.7875 85.2059 69.8885 84.7754C70.8914 84.3832 72.1037 84.5333 72.8975 85.1503L74.8804 86.6917C75.8962 87.4814 77.543 87.4814 78.5587 86.6917L83.7402 82.6638C84.756 81.8741 84.756 80.594 83.7402 79.8043L81.7573 78.2629C80.9636 77.6458 80.7705 76.7033 81.275 75.9237C81.8289 75.0678 82.3056 74.1765 82.698 73.2552C83.0503 72.4283 84.0446 71.8701 85.1652 71.8701H87.9678C89.4041 71.8701 90.5686 70.9649 90.5686 69.8482V69.8482Z" fill="#DF6951"/>
<path d="M64.8502 87.0684C64.7363 87.2967 64.6742 87.5442 64.6742 87.7998V89.9778C64.6742 91.0945 63.5095 92 62.073 92H54.7456C53.3091 92 52.1444 91.0945 52.1444 89.9778V87.7998C52.1444 86.9285 51.4261 86.1549 50.3624 85.8812C49.1782 85.5764 48.0316 85.2062 46.9303 84.7756C45.9274 84.3833 44.7147 84.5332 43.9214 85.1499L41.9388 86.6911C40.9229 87.4808 39.2755 87.4808 38.2596 86.6911L33.0779 82.6639C32.0633 81.8742 32.0633 80.5935 33.0779 79.8038L35.0618 78.2625C35.8551 77.6458 36.0479 76.7032 35.5432 75.9235C34.9893 75.0674 34.5131 74.176 34.1209 73.2555C33.7689 72.4285 32.7737 71.8702 31.653 71.8702H28.8512C27.4147 71.8702 26.25 70.9648 26.25 69.8481V64.1519C26.25 63.0352 27.4147 62.1297 28.8512 62.1297H31.653C31.9817 62.1297 32.3001 62.0815 32.5939 61.9929C32.5913 62.1187 32.59 62.2454 32.59 62.3722C32.59 76.013 46.8151 87.0714 64.3623 87.0714C64.5254 87.0714 64.6884 87.0704 64.8502 87.0684V87.0684Z" fill="#DF6951"/>
<path d="M58.4093 83.5996C70.2024 83.5996 79.7625 76.1677 79.7625 67C79.7625 57.8323 70.2024 50.4004 58.4093 50.4004C46.6162 50.4004 37.056 57.8323 37.056 67C37.056 76.1677 46.6162 83.5996 58.4093 83.5996Z" fill="#DF6951"/>
<path d="M58.4092 80.0783C67.7007 80.0783 75.233 74.2229 75.233 66.9999C75.233 59.7768 67.7007 53.9214 58.4092 53.9214C49.1177 53.9214 41.5854 59.7768 41.5854 66.9999C41.5854 74.2229 49.1177 80.0783 58.4092 80.0783Z" fill="#F8F7F7"/>
</svg>
