<svg width="151" height="150" viewBox="0 0 151 150" fill="none" xmlns="http://www.w3.org/2000/svg">
<path d="M59.9821 90C59.9821 99.9411 68.0409 108 77.9821 108L119.301 108C122.062 108 124.301 105.761 124.301 103L124.301 69C124.301 63.4772 119.823 59 114.301 59L64.982 59C62.2206 59 59.9821 61.2386 59.9821 64L59.9821 90Z" fill="#DCD5DC"/>
<path d="M89.5686 69.8482V64.1518C89.5686 63.0351 88.4041 62.1299 86.9676 62.1299H84.165C83.0444 62.1299 82.0502 61.5717 81.6979 60.7448C81.3055 59.8235 80.8288 58.9322 80.2749 58.0763C79.7704 57.2967 79.9635 56.3542 80.7572 55.7371L82.7401 54.1957C83.7558 53.406 83.7558 52.1259 82.7401 51.3362L77.5586 47.3082C76.5428 46.5186 74.896 46.5186 73.8803 47.3082L71.8974 48.8497C71.1036 49.4668 69.8912 49.6168 68.8884 49.2246C67.7873 48.7941 66.6407 48.4234 65.4557 48.1184C64.3919 47.8446 63.6739 47.0716 63.6739 46.2005V44.0219C63.6739 42.9052 62.5095 42 61.073 42H53.7453C52.3088 42 51.1444 42.9052 51.1444 44.0219V46.2006C51.1444 47.0717 50.4264 47.8447 49.3626 48.1185C48.1776 48.4235 47.0309 48.7942 45.9299 49.2247C44.9271 49.6169 43.7147 49.4668 42.9209 48.8498L40.938 47.3083C39.9223 46.5187 38.2755 46.5187 37.2597 47.3083L32.0785 51.3363C31.0627 52.126 31.0627 53.4061 32.0785 54.1958L34.0614 55.7372C34.8551 56.3543 35.0481 57.2968 34.5437 58.0764C33.9898 58.9323 33.513 59.8236 33.1207 60.7449C32.8717 61.3293 32.3021 61.7794 31.594 61.9932C31.3001 62.0819 31.1116 62.2305 30.7829 62.2305H27.9804C26.5439 62.2305 25.3794 63.1357 25.3794 64.2524V69.7476C25.3794 70.8643 26.5439 71.7695 27.9804 71.7695H30.7829C31.9035 71.7695 32.8978 72.4283 33.2501 73.2552C33.6425 74.1765 34.1192 75.0677 34.6731 75.9237C35.1776 76.7033 34.9845 77.6458 34.1908 78.2629L32.3373 79.8043C31.3216 80.594 31.3216 81.8741 32.3373 82.6638L37.26 86.4905C38.2757 87.2802 39.9225 87.2802 40.9383 86.4905L42.9212 84.9491C43.7149 84.332 44.9273 84.182 45.9302 84.5741C47.0312 85.0047 48.4366 85.476 49.6217 85.781C50.6855 86.0548 51.4034 86.8278 51.4034 87.6989V89.8776C51.4034 90.9943 52.5679 91.8995 54.0044 91.8995H60.9438C62.3803 91.8995 63.5448 90.9943 63.5448 89.8776V87.6989C63.5448 87.4434 63.7359 87.2969 63.8501 87.0684C64.1251 86.5179 64.7042 86.0752 65.4558 85.8816C66.6409 85.5766 67.7875 85.2059 68.8885 84.7754C69.8914 84.3832 71.1037 84.5333 71.8975 85.1503L73.8804 86.6917C74.8962 87.4814 76.543 87.4814 77.5587 86.6917L82.7402 82.6638C83.756 81.8741 83.756 80.594 82.7402 79.8043L80.7573 78.2629C79.9636 77.6458 79.7705 76.7033 80.275 75.9237C80.8289 75.0678 81.3056 74.1765 81.698 73.2552C82.0503 72.4283 83.0446 71.8701 84.1652 71.8701H86.9678C88.4041 71.8701 89.5686 70.9649 89.5686 69.8482V69.8482Z" fill="#DF6951"/>
<path d="M63.8502 87.0684C63.7363 87.2967 63.6742 87.5442 63.6742 87.7998V89.9778C63.6742 91.0945 62.5095 92 61.073 92H53.7456C52.3091 92 51.1444 91.0945 51.1444 89.9778V87.7998C51.1444 86.9285 50.4261 86.1549 49.3624 85.8812C48.1782 85.5764 47.0316 85.2062 45.9303 84.7756C44.9274 84.3833 43.7147 84.5332 42.9214 85.1499L40.9388 86.6911C39.9229 87.4808 38.2755 87.4808 37.2596 86.6911L32.0779 82.6639C31.0633 81.8742 31.0633 80.5935 32.0779 79.8038L34.0618 78.2625C34.8551 77.6458 35.0479 76.7032 34.5432 75.9235C33.9893 75.0674 33.5131 74.176 33.1209 73.2555C32.7689 72.4285 31.7737 71.8702 30.653 71.8702H27.8512C26.4147 71.8702 25.25 70.9648 25.25 69.8481V64.1519C25.25 63.0352 26.4147 62.1297 27.8512 62.1297H30.653C30.9817 62.1297 31.3001 62.0815 31.5939 61.9929C31.5913 62.1187 31.59 62.2454 31.59 62.3722C31.59 76.013 45.8151 87.0714 63.3623 87.0714C63.5254 87.0714 63.6884 87.0704 63.8502 87.0684V87.0684Z" fill="#DF6951"/>
<path d="M57.4093 83.5996C69.2024 83.5996 78.7625 76.1677 78.7625 67C78.7625 57.8323 69.2024 50.4004 57.4093 50.4004C45.6162 50.4004 36.056 57.8323 36.056 67C36.056 76.1677 45.6162 83.5996 57.4093 83.5996Z" fill="#DF6951"/>
<path d="M57.4092 80.0783C66.7007 80.0783 74.233 74.2229 74.233 66.9999C74.233 59.7768 66.7007 53.9214 57.4092 53.9214C48.1177 53.9214 40.5854 59.7768 40.5854 66.9999C40.5854 74.2229 48.1177 80.0783 57.4092 80.0783Z" fill="#F8F7F7"/>
</svg>
