<svg width="100" height="78" viewBox="0 0 100 78" fill="none" xmlns="http://www.w3.org/2000/svg">
<path d="M99.6406 60C99.6406 69.9411 91.5818 78 81.6406 78L50.955 78C48.1935 78 45.955 75.7614 45.955 73L45.955 39C45.955 33.4772 50.4321 29 55.955 29L94.6406 29C97.4021 29 99.6406 31.2386 99.6406 34L99.6406 60Z" fill="#DCD5DC"/>
<path d="M26.1203 50.6573L24.093 49.7534L12.0496 66.338H25.4902L26.7854 65.5515V51.2249L26.1203 50.6573Z" fill="#DF6951"/>
<path d="M24.2763 49.8353L19.7183 47.803H18.8593L5.9707 65.5516L6.73801 66.3382H12.2923L24.2763 49.8353Z" fill="#BE432A"/>
<path d="M29.2053 65.5515H11.4326C10.6253 65.5515 9.9707 66.161 9.9707 66.9131V68.6385C9.9707 69.3903 10.6251 69.9998 11.4324 69.9999H29.2053C30.0127 69.9999 30.6672 69.3904 30.6672 68.6385V66.9131C30.6672 66.161 30.0127 65.5515 29.2053 65.5515Z" fill="#DF6951"/>
<path d="M10.2732 68.6385V66.9131C10.2732 66.1611 10.9277 65.5515 11.7351 65.5515H2.32108C1.5137 65.5515 0.859131 66.161 0.859131 66.9131V68.6385C0.859131 69.3904 1.5137 69.9999 2.32108 69.9999H11.735C10.9276 69.9999 10.2732 69.3904 10.2732 68.6385V68.6385Z" fill="#BE432A"/>
<path d="M23.6646 39.9827C23.1175 41.0338 22.8083 42.2123 22.8083 43.459C22.8083 46.8659 25.099 49.7721 28.3229 50.9218C29.707 50.5179 30.9369 49.7893 31.9084 48.8301V47.0893L23.6646 39.9827Z" fill="#DF6951"/>
<path d="M22.9527 43.4864C22.9527 42.2686 23.2551 41.1174 23.7905 40.091L21.1553 37.8193H20.0861C18.4691 39.24 17.4583 41.2526 17.4583 43.4863C17.4583 47.7894 21.2036 51.2776 25.8239 51.2776C26.7863 51.2776 27.7092 51.1238 28.5694 50.845C25.3 49.7857 22.9527 46.8922 22.9527 43.4864V43.4864Z" fill="#BE432A"/>
<path d="M71.5224 0.924695C70.1986 -0.308232 68.0523 -0.308232 66.7286 0.924695L63.4937 3.93756V4.31941L67.5313 8.23954L68.2874 8.40223L71.5222 5.38937C72.8462 4.15658 72.8462 2.15762 71.5224 0.924695V0.924695Z" fill="#FFD086"/>
<path d="M72.4167 2.41492C72.2754 1.86915 71.9798 1.35085 71.5224 0.924695C70.1986 -0.308232 68.0523 -0.308232 66.7286 0.924695L63.4937 3.93756V4.31941L65.6344 6.3978C66.9106 5.16091 68.1778 3.94029 68.8294 3.3334C69.9157 2.32182 71.5023 2.31403 72.4167 2.41492V2.41492Z" fill="#FFC365"/>
<path d="M60.4474 8.95026C60.4102 8.95026 60.3727 8.94848 60.3349 8.94507L22.9521 5.51808C22.3286 5.46094 21.8731 4.944 21.9345 4.36336C21.9959 3.78272 22.5512 3.35875 23.1743 3.41549L60.5572 6.84234C61.1805 6.89949 61.6361 7.41642 61.5748 7.99706C61.5171 8.5427 61.0237 8.95026 60.4474 8.95026Z" fill="#365E7D"/>
<path d="M33.7641 15.4682C33.261 15.4682 32.8014 15.1541 32.6678 14.6796C32.5088 14.1153 32.8712 13.5378 33.4771 13.3897L60.1589 6.87166C60.7647 6.72387 61.3849 7.06115 61.5438 7.62552C61.7028 8.18976 61.3405 8.76726 60.7345 8.91532L34.0527 15.4334C33.9561 15.4569 33.8592 15.4682 33.7641 15.4682V15.4682Z" fill="#407093"/>
<path d="M67.694 47.1359C67.1172 47.1359 66.6238 46.7279 66.5664 46.1822L62.9098 11.3444C62.8488 10.7639 63.3048 10.2471 63.9282 10.1902C64.5517 10.1361 65.1064 10.5583 65.1673 11.1389L68.824 45.9767C68.885 46.5572 68.429 47.074 67.8056 47.1308C67.7681 47.1341 67.7308 47.1359 67.694 47.1359Z" fill="#365E7D"/>
<path d="M56.934 37.2475C56.8379 37.2475 56.7401 37.2359 56.6426 37.212C56.0371 37.0624 55.6764 36.4841 55.837 35.9201L62.9386 10.9741C63.099 10.41 63.7198 10.0746 64.3255 10.2236C64.931 10.3732 65.2917 10.9515 65.1311 11.5155L58.0296 36.4615C57.895 36.9348 57.4359 37.2475 56.934 37.2475V37.2475Z" fill="#407093"/>
<path d="M60.2429 6.96436L63.4861 3.94382L68.2792 8.40788L65.036 11.4284L60.2429 6.96436Z" fill="#FFC365"/>
<path d="M62.7059 9.24573C63.4854 8.48557 64.7026 7.29995 65.8799 6.15999L63.4938 3.9375L60.25 6.95843L62.7059 9.24573Z" fill="#FFA90F"/>
<path d="M65.7661 13.1519C65.4759 13.1519 65.1855 13.0487 64.9641 12.8425L58.7263 7.03305C58.2833 6.62044 58.2833 5.95175 58.7263 5.53899C59.1692 5.12665 59.8873 5.12665 60.3304 5.53899L66.5682 11.3484C67.0112 11.761 67.0112 12.4297 66.5682 12.8425C66.3467 13.0488 66.0564 13.1519 65.7661 13.1519Z" fill="#4A80AA"/>
<path d="M66.498 49.0375L28.5199 13.3599C23.4848 23.9465 22.6105 35.3112 26.3799 45.1113C36.7901 53.8572 52.341 55.2002 66.6571 49.7025L66.498 49.0375Z" fill="#F79D8B"/>
<path d="M28.7223 13.55L20.021 5.37573L19.149 5.45585C13.0185 19.3031 14.8085 34.3917 25.1985 44.0684C25.8278 44.6545 26.479 45.2107 27.1494 45.7383C22.7696 35.9498 23.4814 24.3077 28.7223 13.55V13.55Z" fill="#DF6951"/>
<path d="M69.9687 46.5017L31.4509 10.6282C31.0718 10.6826 30.7069 10.8431 30.4151 11.1149L28.7397 12.6754C28.3799 13.0105 28.2009 13.4481 28.1958 13.8874L66.5915 49.647C67.1624 50.1787 68.088 50.1787 68.6589 49.647L69.9689 48.4271C70.5396 47.8955 70.5396 47.0334 69.9687 46.5017Z" fill="#DBEDFF"/>
<path d="M28.7975 12.7021L30.4379 11.1743C30.74 10.8929 31.1215 10.7318 31.5153 10.6882L22.5859 2.37192C22.015 1.84022 21.0895 1.84022 20.5185 2.37192L19.2084 3.59199C18.6376 4.12369 18.6376 4.9857 19.2084 5.5174L28.2633 13.9506C28.2514 13.5 28.4283 13.0459 28.7975 12.7021V12.7021Z" fill="#B5DCFF"/>
</svg>
