<svg width="38" height="38" viewBox="0 0 38 38" fill="none" xmlns="http://www.w3.org/2000/svg">
<ellipse cx="19.25" cy="18.5732" rx="18.75" ry="18.5732" fill="#5E6282"/>
<path fill-rule="evenodd" clip-rule="evenodd" d="M27.0605 9.90735H12.0379C11.2174 9.90735 10.5 10.4926 10.5 11.2961V26.2096C10.5 27.0178 11.2174 27.7377 12.0379 27.7377H27.0558C27.8811 27.7377 28.5 27.0131 28.5 26.2096V11.2961C28.5047 10.4926 27.8811 9.90735 27.0605 9.90735ZM16.0796 24.7698H13.5008V16.8276H16.0796V24.7698ZM14.8792 15.62H14.8605C14.0353 15.62 13.5008 15.0115 13.5008 14.2498C13.5008 13.4742 14.0493 12.8797 14.8933 12.8797C15.7373 12.8797 16.253 13.4695 16.2718 14.2498C16.2718 15.0115 15.7373 15.62 14.8792 15.62ZM25.5039 24.7696H22.9251V20.427C22.9251 19.3866 22.55 18.676 21.6169 18.676C20.9042 18.676 20.4823 19.1544 20.2947 19.6189C20.2244 19.7861 20.2056 20.0137 20.2056 20.2459V24.7696H17.6268V16.8275H20.2056V17.9329C20.5807 17.4034 21.1668 16.6417 22.5312 16.6417C24.2239 16.6417 25.5039 17.7471 25.5039 20.1298V24.7696Z" fill="#DFD7F9"/>
</svg>
