<svg width="500" height="500" viewBox="0 0 500 500" fill="none" xmlns="http://www.w3.org/2000/svg">
<path d="M101.425 242.607C89.0009 230.777 81.3638 214.499 81.3638 196.602C81.3638 160.405 112.611 131.033 151.12 131.033C189.628 131.033 220.929 160.355 220.929 196.552L167.2 158.13L101.425 242.607Z" fill="#FDC858"/>
<path d="M151.173 113.541V120.619" stroke="#D4C0E2" stroke-width="8" stroke-miterlimit="10" stroke-linecap="round" stroke-linejoin="round"/>
<path d="M151.173 100.397V107.778" stroke="#D4C0E2" stroke-width="8" stroke-miterlimit="10" stroke-linecap="round" stroke-linejoin="round"/>
<path d="M151.173 84.1689V93.8249" stroke="#D4C0E2" stroke-width="8" stroke-miterlimit="10" stroke-linecap="round" stroke-linejoin="round"/>
<path d="M135.792 114.805L137.136 121.731" stroke="#D4C0E2" stroke-width="8" stroke-miterlimit="10" stroke-linecap="round" stroke-linejoin="round"/>
<path d="M133.371 101.863L134.77 109.143" stroke="#D4C0E2" stroke-width="8" stroke-miterlimit="10" stroke-linecap="round" stroke-linejoin="round"/>
<path d="M130.36 85.8877L132.188 95.392" stroke="#D4C0E2" stroke-width="8" stroke-miterlimit="10" stroke-linecap="round" stroke-linejoin="round"/>
<path d="M120.948 118.546L123.529 125.169" stroke="#D4C0E2" stroke-width="8" stroke-miterlimit="10" stroke-linecap="round" stroke-linejoin="round"/>
<path d="M116.161 106.211L118.85 113.137" stroke="#D4C0E2" stroke-width="8" stroke-miterlimit="10" stroke-linecap="round" stroke-linejoin="round"/>
<path d="M110.245 90.9434L113.795 100.043" stroke="#D4C0E2" stroke-width="8" stroke-miterlimit="10" stroke-linecap="round" stroke-linejoin="round"/>
<path d="M106.964 124.663L110.729 130.78" stroke="#D4C0E2" stroke-width="8" stroke-miterlimit="10" stroke-linecap="round" stroke-linejoin="round"/>
<path d="M100.026 113.288L103.952 119.709" stroke="#D4C0E2" stroke-width="8" stroke-miterlimit="10" stroke-linecap="round" stroke-linejoin="round"/>
<path d="M91.3673 99.2344L96.5304 107.626" stroke="#D4C0E2" stroke-width="8" stroke-miterlimit="10" stroke-linecap="round" stroke-linejoin="round"/>
<path d="M94.379 132.954L99.2194 138.364" stroke="#D4C0E2" stroke-width="8" stroke-miterlimit="10" stroke-linecap="round" stroke-linejoin="round"/>
<path d="M85.3972 122.894L90.4528 128.556" stroke="#D4C0E2" stroke-width="8" stroke-miterlimit="10" stroke-linecap="round" stroke-linejoin="round"/>
<path d="M74.2644 110.458L80.9334 117.889" stroke="#D4C0E2" stroke-width="8" stroke-miterlimit="10" stroke-linecap="round" stroke-linejoin="round"/>
<path d="M83.515 143.217L89.2697 147.716" stroke="#D4C0E2" stroke-width="8" stroke-miterlimit="10" stroke-linecap="round" stroke-linejoin="round"/>
<path d="M72.8124 134.774L78.7822 139.526" stroke="#D4C0E2" stroke-width="8" stroke-miterlimit="10" stroke-linecap="round" stroke-linejoin="round"/>
<path d="M59.5281 124.309L67.4341 130.528" stroke="#D4C0E2" stroke-width="8" stroke-miterlimit="10" stroke-linecap="round" stroke-linejoin="round"/>
<path d="M74.6412 155.047L81.1489 158.585" stroke="#D4C0E2" stroke-width="8" stroke-miterlimit="10" stroke-linecap="round" stroke-linejoin="round"/>
<path d="M62.5402 148.474L69.3705 152.165" stroke="#D4C0E2" stroke-width="8" stroke-miterlimit="10" stroke-linecap="round" stroke-linejoin="round"/>
<path d="M47.5885 140.335L56.5164 145.188" stroke="#D4C0E2" stroke-width="8" stroke-miterlimit="10" stroke-linecap="round" stroke-linejoin="round"/>
<path d="M68.1334 168.191L75.2327 170.567" stroke="#D4C0E2" stroke-width="8" stroke-miterlimit="10" stroke-linecap="round" stroke-linejoin="round"/>
<path d="M55.0103 163.692L62.4322 166.219" stroke="#D4C0E2" stroke-width="8" stroke-miterlimit="10" stroke-linecap="round" stroke-linejoin="round"/>
<path d="M38.7682 158.13L48.449 161.416" stroke="#D4C0E2" stroke-width="8" stroke-miterlimit="10" stroke-linecap="round" stroke-linejoin="round"/>
<path d="M64.1533 182.144L71.5753 183.357" stroke="#D4C0E2" stroke-width="8" stroke-miterlimit="10" stroke-linecap="round" stroke-linejoin="round"/>
<path d="M50.4387 179.869L58.1296 181.133" stroke="#D4C0E2" stroke-width="8" stroke-miterlimit="10" stroke-linecap="round" stroke-linejoin="round"/>
<path d="M33.3899 177.038L43.5548 178.706" stroke="#D4C0E2" stroke-width="8" stroke-miterlimit="10" stroke-linecap="round" stroke-linejoin="round"/>
<path d="M62.809 196.552H70.3385" stroke="#D4C0E2" stroke-width="8" stroke-miterlimit="10" stroke-linecap="round" stroke-linejoin="round"/>
<path d="M48.8793 196.552H56.7315" stroke="#D4C0E2" stroke-width="8" stroke-miterlimit="10" stroke-linecap="round" stroke-linejoin="round"/>
<path d="M31.5615 196.552H41.8877" stroke="#D4C0E2" stroke-width="8" stroke-miterlimit="10" stroke-linecap="round" stroke-linejoin="round"/>
<path d="M64.1533 210.96L71.5753 209.747" stroke="#D4C0E2" stroke-width="8" stroke-miterlimit="10" stroke-linecap="round" stroke-linejoin="round"/>
<path d="M50.4387 213.235L58.1296 211.971" stroke="#D4C0E2" stroke-width="8" stroke-miterlimit="10" stroke-linecap="round" stroke-linejoin="round"/>
<path d="M33.3898 216.066L43.5546 214.398" stroke="#D4C0E2" stroke-width="8" stroke-miterlimit="10" stroke-linecap="round" stroke-linejoin="round"/>
<path d="M68.1334 224.963L75.2327 222.537" stroke="#D4C0E2" stroke-width="8" stroke-miterlimit="10" stroke-linecap="round" stroke-linejoin="round"/>
<path d="M55.0103 229.463L62.4322 226.935" stroke="#D4C0E2" stroke-width="8" stroke-miterlimit="10" stroke-linecap="round" stroke-linejoin="round"/>
<path d="M38.7682 235.024L48.449 231.688" stroke="#D4C0E2" stroke-width="8" stroke-miterlimit="10" stroke-linecap="round" stroke-linejoin="round"/>
<path d="M74.6412 238.057L81.1489 234.519" stroke="#D4C0E2" stroke-width="8" stroke-miterlimit="10" stroke-linecap="round" stroke-linejoin="round"/>
<path d="M62.5402 244.629L69.3705 240.939" stroke="#D4C0E2" stroke-width="8" stroke-miterlimit="10" stroke-linecap="round" stroke-linejoin="round"/>
<path d="M47.5886 252.769L56.5165 247.915" stroke="#D4C0E2" stroke-width="8" stroke-miterlimit="10" stroke-linecap="round" stroke-linejoin="round"/>
<path d="M234.159 168.191L227.06 170.567" stroke="#D4C0E2" stroke-width="8" stroke-miterlimit="10" stroke-linecap="round" stroke-linejoin="round"/>
<path d="M247.282 163.691L239.86 166.219" stroke="#D4C0E2" stroke-width="8" stroke-miterlimit="10" stroke-linecap="round" stroke-linejoin="round"/>
<path d="M227.652 155.047L221.144 158.585" stroke="#D4C0E2" stroke-width="8" stroke-miterlimit="10" stroke-linecap="round" stroke-linejoin="round"/>
<path d="M239.753 148.474L232.922 152.165" stroke="#D4C0E2" stroke-width="8" stroke-miterlimit="10" stroke-linecap="round" stroke-linejoin="round"/>
<path d="M254.705 140.335L245.777 145.188" stroke="#D4C0E2" stroke-width="8" stroke-miterlimit="10" stroke-linecap="round" stroke-linejoin="round"/>
<path d="M218.778 143.217L213.077 147.716" stroke="#D4C0E2" stroke-width="8" stroke-miterlimit="10" stroke-linecap="round" stroke-linejoin="round"/>
<path d="M229.48 134.774L223.511 139.526" stroke="#D4C0E2" stroke-width="8" stroke-miterlimit="10" stroke-linecap="round" stroke-linejoin="round"/>
<path d="M242.765 124.309L234.859 130.528" stroke="#D4C0E2" stroke-width="8" stroke-miterlimit="10" stroke-linecap="round" stroke-linejoin="round"/>
<path d="M207.914 132.954L203.073 138.364" stroke="#D4C0E2" stroke-width="8" stroke-miterlimit="10" stroke-linecap="round" stroke-linejoin="round"/>
<path d="M216.895 122.894L211.84 128.556" stroke="#D4C0E2" stroke-width="8" stroke-miterlimit="10" stroke-linecap="round" stroke-linejoin="round"/>
<path d="M228.028 110.458L221.413 117.889" stroke="#D4C0E2" stroke-width="8" stroke-miterlimit="10" stroke-linecap="round" stroke-linejoin="round"/>
<path d="M195.329 124.663L191.564 130.78" stroke="#D4C0E2" stroke-width="8" stroke-miterlimit="10" stroke-linecap="round" stroke-linejoin="round"/>
<path d="M202.267 113.288L198.341 119.709" stroke="#D4C0E2" stroke-width="8" stroke-miterlimit="10" stroke-linecap="round" stroke-linejoin="round"/>
<path d="M210.926 99.2344L205.763 107.626" stroke="#D4C0E2" stroke-width="8" stroke-miterlimit="10" stroke-linecap="round" stroke-linejoin="round"/>
<path d="M181.345 118.546L178.764 125.169" stroke="#D4C0E2" stroke-width="8" stroke-miterlimit="10" stroke-linecap="round" stroke-linejoin="round"/>
<path d="M186.132 106.211L183.443 113.137" stroke="#D4C0E2" stroke-width="8" stroke-miterlimit="10" stroke-linecap="round" stroke-linejoin="round"/>
<path d="M192.048 90.9434L188.499 100.043" stroke="#D4C0E2" stroke-width="8" stroke-miterlimit="10" stroke-linecap="round" stroke-linejoin="round"/>
<path d="M166.501 114.805L165.156 121.731" stroke="#D4C0E2" stroke-width="8" stroke-miterlimit="10" stroke-linecap="round" stroke-linejoin="round"/>
<path d="M168.921 101.863L167.523 109.143" stroke="#D4C0E2" stroke-width="8" stroke-miterlimit="10" stroke-linecap="round" stroke-linejoin="round"/>
<path d="M171.933 85.8877L170.104 95.392" stroke="#D4C0E2" stroke-width="8" stroke-miterlimit="10" stroke-linecap="round" stroke-linejoin="round"/>
<path d="M89.8076 378.903H14.835" stroke="#523160" stroke-width="8" stroke-miterlimit="10" stroke-linecap="round" stroke-linejoin="round"/>
<path d="M206.515 378.903H99.2196" stroke="#523160" stroke-width="8" stroke-miterlimit="10" stroke-linecap="round" stroke-linejoin="round"/>
<path d="M400.67 378.903H390.935" stroke="#523160" stroke-width="8" stroke-miterlimit="10" stroke-linecap="round" stroke-linejoin="round"/>
<path d="M456.603 378.903H410.028" stroke="#523160" stroke-width="8" stroke-miterlimit="10" stroke-linecap="round" stroke-linejoin="round"/>
<path d="M468.167 378.903H464.671" stroke="#523160" stroke-width="8" stroke-miterlimit="10" stroke-linecap="round" stroke-linejoin="round"/>
<path d="M62.0021 292.909L167.469 158.333L226.415 200.95" stroke="#D4C0E2" stroke-width="8" stroke-miterlimit="10" stroke-linecap="round" stroke-linejoin="round"/>
<path d="M199.47 235.328L274.819 139.173L402.713 248.371" stroke="#D4C0E2" stroke-width="8" stroke-miterlimit="10" stroke-linecap="round" stroke-linejoin="round"/>
<path d="M36.3302 321.114C40.5322 318.097 42.7981 314.248 41.3917 312.517C39.9853 310.787 35.439 311.829 31.2376 314.846C27.0358 317.863 24.7697 321.711 26.1761 323.442C27.5824 325.173 32.1287 324.13 36.3302 321.114Z" fill="#FDC858"/>
<path d="M36.3066 305.095C40.5087 302.078 42.7745 298.23 41.3681 296.499C39.9617 294.769 35.4155 295.811 31.214 298.828C27.0123 301.844 24.7462 305.693 26.1525 307.424C27.5588 309.154 32.1052 308.112 36.3066 305.095Z" fill="#FDC858"/>
<path d="M36.3226 359.992C40.5246 356.975 42.7904 353.127 41.384 351.396C39.9776 349.666 35.4314 350.708 31.2299 353.725C27.0282 356.741 24.762 360.59 26.1683 362.32C27.5747 364.051 32.1211 363.009 36.3226 359.992Z" fill="#FDC858"/>
<path d="M36.3302 340.02C40.5316 337.004 42.798 333.155 41.3916 331.425C39.9852 329.694 35.439 330.737 31.237 333.753C27.0355 336.77 24.7694 340.619 26.1757 342.349C27.582 344.08 32.1281 343.037 36.3302 340.02Z" fill="#FDC858"/>
<path d="M36.3302 321.114C40.5322 318.097 42.7981 314.248 41.3917 312.517C39.9853 310.787 35.439 311.829 31.2376 314.846C27.0358 317.863 24.7697 321.711 26.1761 323.442C27.5824 325.173 32.1287 324.13 36.3302 321.114Z" stroke="#523160" stroke-width="8" stroke-miterlimit="10" stroke-linecap="round" stroke-linejoin="round"/>
<path d="M36.3066 305.095C40.5087 302.078 42.7745 298.23 41.3681 296.499C39.9617 294.769 35.4155 295.811 31.214 298.828C27.0123 301.844 24.7462 305.693 26.1525 307.424C27.5588 309.154 32.1052 308.112 36.3066 305.095Z" stroke="#523160" stroke-width="8" stroke-miterlimit="10" stroke-linecap="round" stroke-linejoin="round"/>
<path d="M36.3226 359.992C40.5246 356.975 42.7904 353.127 41.384 351.396C39.9776 349.666 35.4314 350.708 31.2299 353.725C27.0282 356.741 24.762 360.59 26.1683 362.32C27.5747 364.051 32.1211 363.009 36.3226 359.992Z" stroke="#523160" stroke-width="8" stroke-miterlimit="10" stroke-linecap="round" stroke-linejoin="round"/>
<path d="M36.3302 340.02C40.5316 337.004 42.798 333.155 41.3916 331.425C39.9852 329.694 35.439 330.737 31.237 333.753C27.0355 336.77 24.7694 340.619 26.1757 342.349C27.582 344.08 32.1281 343.037 36.3302 340.02Z" stroke="#523160" stroke-width="8" stroke-miterlimit="10" stroke-linecap="round" stroke-linejoin="round"/>
<path d="M26.125 307.488C27.5313 305.757 25.2652 301.908 21.0635 298.892C16.8618 295.875 12.3155 294.833 10.9092 296.563C9.50288 298.294 11.769 302.143 15.9707 305.16C20.1724 308.176 24.7187 309.219 26.125 307.488Z" fill="#FDC858"/>
<path d="M26.099 354.314C27.5053 352.583 25.2393 348.735 21.0375 345.718C16.8358 342.701 12.2896 341.659 10.8833 343.389C9.47701 345.12 11.7431 348.969 15.9448 351.985C20.1465 355.002 24.6927 356.045 26.099 354.314Z" fill="#FDC858"/>
<path d="M26.1115 334.288C27.5179 332.558 25.2517 328.709 21.05 325.693C16.8483 322.676 12.3021 321.634 10.8958 323.364C9.48943 325.095 11.7555 328.943 15.9572 331.96C20.1589 334.977 24.7052 336.019 26.1115 334.288Z" fill="#FDC858"/>
<path d="M26.125 307.488C27.5313 305.757 25.2652 301.908 21.0635 298.892C16.8618 295.875 12.3155 294.833 10.9092 296.563C9.50288 298.294 11.769 302.143 15.9707 305.16C20.1724 308.176 24.7187 309.219 26.125 307.488Z" stroke="#523160" stroke-width="8" stroke-miterlimit="10" stroke-linecap="round" stroke-linejoin="round"/>
<path d="M26.099 354.314C27.5053 352.583 25.2393 348.735 21.0375 345.718C16.8358 342.701 12.2896 341.659 10.8833 343.389C9.47701 345.12 11.7431 348.969 15.9448 351.985C20.1465 355.002 24.6927 356.045 26.099 354.314Z" stroke="#523160" stroke-width="8" stroke-miterlimit="10" stroke-linecap="round" stroke-linejoin="round"/>
<path d="M26.1115 334.288C27.5179 332.558 25.2517 328.709 21.05 325.693C16.8483 322.676 12.3021 321.634 10.8958 323.364C9.48943 325.095 11.7555 328.943 15.9572 331.96C20.1589 334.977 24.7052 336.019 26.1115 334.288Z" stroke="#523160" stroke-width="8" stroke-miterlimit="10" stroke-linecap="round" stroke-linejoin="round"/>
<path d="M26.1293 304.486V377.942" stroke="#523160" stroke-width="8" stroke-miterlimit="10" stroke-linecap="round" stroke-linejoin="round"/>
<path d="M80.9733 363.876C85.1753 360.859 87.4412 357.011 86.0347 355.28C84.6283 353.549 80.0821 354.592 75.8806 357.608C71.6786 360.625 69.4128 364.474 70.8192 366.204C72.2256 367.935 76.7718 366.893 80.9733 363.876Z" stroke="#523160" stroke-width="8" stroke-miterlimit="10" stroke-linecap="round" stroke-linejoin="round"/>
<path d="M80.9733 347.092C85.1748 344.075 87.4412 340.227 86.0347 338.496C84.6283 336.765 80.0821 337.808 75.8806 340.825C71.6786 343.841 69.4128 347.69 70.8192 349.421C72.2256 351.151 76.7718 350.109 80.9733 347.092Z" stroke="#523160" stroke-width="8" stroke-miterlimit="10" stroke-linecap="round" stroke-linejoin="round"/>
<path d="M80.9614 331.93C85.1629 328.913 87.4293 325.065 86.0229 323.334C84.6165 321.603 80.0703 322.646 75.8682 325.662C71.6668 328.679 69.4004 332.527 70.8068 334.258C72.2132 335.989 76.7594 334.946 80.9614 331.93Z" stroke="#523160" stroke-width="8" stroke-miterlimit="10" stroke-linecap="round" stroke-linejoin="round"/>
<path d="M70.7368 354.31C72.1426 352.58 69.8768 348.731 65.6753 345.714C61.4733 342.698 56.9271 341.655 55.5207 343.386C54.1142 345.116 56.3806 348.965 60.5821 351.982C64.7841 354.998 69.3304 356.041 70.7368 354.31Z" stroke="#523160" stroke-width="8" stroke-miterlimit="10" stroke-linecap="round" stroke-linejoin="round"/>
<path d="M70.7491 334.284C72.1555 332.554 69.8891 328.705 65.6876 325.689C61.4856 322.672 56.9394 321.629 55.5335 323.36C54.1271 325.091 56.393 328.939 60.595 331.956C64.7965 334.973 69.3427 336.015 70.7491 334.284Z" stroke="#523160" stroke-width="8" stroke-miterlimit="10" stroke-linecap="round" stroke-linejoin="round"/>
<path d="M70.7684 332.19V377.942" stroke="#523160" stroke-width="8" stroke-miterlimit="10" stroke-linecap="round" stroke-linejoin="round"/>
<path d="M133.371 202.062L138.642 208.432L151.388 203.68L167.9 209.645L174.73 203.68L187.638 207.674L194.629 197.664L211.033 203.832L217.487 194.479" stroke="#D4C0E2" stroke-width="8" stroke-miterlimit="10" stroke-linecap="round" stroke-linejoin="round"/>
<path d="M241.474 181.689L257.824 178.15L263.793 188.514L280.735 179.92L293.105 187.25L301.118 176.128L321.878 179.364" stroke="#D4C0E2" stroke-width="8" stroke-miterlimit="10" stroke-linecap="round" stroke-linejoin="round"/>
<path d="M310.208 143.874H386.794C387.224 142.914 387.493 141.801 387.493 140.689C387.493 136.19 383.567 132.499 378.78 132.499C377.812 132.499 376.898 132.651 376.091 132.904C374.101 127.798 368.831 124.158 362.699 124.158C361.086 124.158 359.526 124.411 358.074 124.866C355.008 118.496 348.124 114.047 340.218 114.047C329.354 114.047 320.588 122.287 320.588 132.499C320.588 133.51 320.695 134.522 320.857 135.533C315.909 136.392 311.929 139.577 310.208 143.874Z" stroke="#D4C0E2" stroke-width="8" stroke-miterlimit="10" stroke-linecap="round" stroke-linejoin="round"/>
<path d="M443.104 176.785C443.104 176.735 443.104 176.684 443.104 176.634C443.104 171.78 438.909 167.888 433.8 167.888C432.831 167.888 431.917 168.039 431.057 168.292C431.057 168.039 431.057 167.787 431.057 167.534C431.057 159.85 424.441 153.631 416.266 153.631C408.092 153.631 401.476 159.85 401.476 167.534C401.476 168.343 401.53 169.101 401.691 169.859C401.638 169.859 401.53 169.859 401.476 169.859C397.496 169.859 394.216 172.893 394.216 176.684C394.216 176.735 394.216 176.785 394.216 176.886H443.104V176.785Z" stroke="#D4C0E2" stroke-width="8" stroke-miterlimit="10" stroke-linecap="round" stroke-linejoin="round"/>
<path d="M157.788 378.903C144.181 378.903 133.102 368.488 133.102 355.698C133.102 342.908 144.181 332.493 157.788 332.493C171.395 332.493 182.474 342.908 182.474 355.698C182.474 368.488 171.395 378.903 157.788 378.903Z" fill="#5C3F6B"/>
<path d="M157.788 378.903C144.181 378.903 133.102 368.488 133.102 355.698C133.102 342.908 144.181 332.493 157.788 332.493C171.395 332.493 182.474 342.908 182.474 355.698C182.474 368.488 171.395 378.903 157.788 378.903Z" stroke="#523160" stroke-width="8" stroke-miterlimit="10" stroke-linecap="round" stroke-linejoin="round"/>
<path d="M157.788 367.831C150.689 367.831 144.881 362.371 144.881 355.698C144.881 349.025 150.689 343.565 157.788 343.565C164.888 343.565 170.696 349.025 170.696 355.698C170.696 362.371 164.888 367.831 157.788 367.831Z" fill="#FDC858"/>
<path d="M157.788 367.831C150.689 367.831 144.881 362.371 144.881 355.698C144.881 349.025 150.689 343.565 157.788 343.565C164.888 343.565 170.696 349.025 170.696 355.698C170.696 362.371 164.888 367.831 157.788 367.831Z" stroke="#523160" stroke-width="8" stroke-miterlimit="10" stroke-linecap="round" stroke-linejoin="round"/>
<path d="M157.788 359.692C155.422 359.692 153.539 357.872 153.539 355.698C153.539 353.474 155.476 351.704 157.788 351.704C160.155 351.704 162.037 353.524 162.037 355.698C162.037 357.872 160.155 359.692 157.788 359.692Z" fill="#FDC858"/>
<path d="M157.788 359.692C155.422 359.692 153.539 357.872 153.539 355.698C153.539 353.474 155.476 351.704 157.788 351.704C160.155 351.704 162.037 353.524 162.037 355.698C162.037 357.872 160.155 359.692 157.788 359.692Z" stroke="#523160" stroke-width="8" stroke-miterlimit="10" stroke-linecap="round" stroke-linejoin="round"/>
<path d="M355.17 285.073L350.114 267.025C348.124 259.796 341.563 254.538 333.657 253.73C311.068 251.455 283.693 250.14 251.746 250.14C215.174 250.14 158.972 252.769 142.084 254.589C139.018 254.892 136.383 256.763 135.146 259.442L124.981 281.787C120.302 289.674 117.452 298.369 116.645 307.368L116.43 357.619L127.778 357.822C127.724 357.114 127.67 356.406 127.67 355.698C127.67 340.077 141.116 327.438 157.735 327.438C174.353 327.438 187.799 340.077 187.799 355.698C187.799 356.608 187.745 357.518 187.638 358.378L266.698 359.288C266.536 358.125 266.429 356.912 266.429 355.698C266.429 340.077 279.874 327.438 296.493 327.438C313.112 327.438 326.557 340.077 326.557 355.698C326.557 357.114 326.45 358.479 326.235 359.844L358.128 360.147V307.772C358.289 300.139 357.213 292.505 355.17 285.073Z" fill="#8E63AD"/>
<g opacity="0.36">
<path opacity="0.36" d="M122.453 357.619L122.668 307.368C123.475 298.369 126.326 289.674 131.005 281.787L141.17 259.442C142.407 256.763 145.042 254.943 148.108 254.589C164.511 252.82 217.917 250.292 254.489 250.14C253.575 250.14 252.66 250.14 251.746 250.14C215.174 250.14 158.972 252.769 142.084 254.589C139.018 254.892 136.383 256.763 135.146 259.442L124.981 281.787C120.302 289.674 117.452 298.369 116.645 307.368L116.43 357.619L127.778 357.822C127.778 357.771 127.778 357.771 127.778 357.72L122.453 357.619Z" fill="#8E63AD"/>
<path opacity="0.36" d="M332.366 359.844C332.581 358.479 332.689 357.114 332.689 355.698C332.689 340.077 319.243 327.438 302.624 327.438C301.603 327.438 300.634 327.489 299.613 327.59C314.833 329.005 326.665 341.037 326.665 355.698C326.665 357.114 326.558 358.479 326.342 359.844L358.235 360.147V360.096L332.366 359.844Z" fill="#8E63AD"/>
<path opacity="0.36" d="M193.715 358.327C193.822 357.467 193.876 356.558 193.876 355.648C193.876 340.026 180.431 327.387 163.812 327.387C162.79 327.387 161.822 327.438 160.8 327.539C176.02 328.955 187.853 340.987 187.853 355.648C187.853 356.558 187.799 357.467 187.691 358.327L266.751 359.237V359.186L193.715 358.327Z" fill="#8E63AD"/>
</g>
<path opacity="0.36" d="M193.822 353.777H265.676V347.053H192.424C193.177 349.227 193.607 351.451 193.822 353.777Z" fill="#8E63AD"/>
<g opacity="0.25">
<path opacity="0.25" d="M356.245 284.568L351.19 266.52C349.2 259.29 342.638 254.033 334.732 253.224C312.144 250.949 284.768 249.635 252.822 249.635C216.25 249.635 160.047 252.263 143.159 254.083C140.524 254.387 138.158 255.802 136.813 257.925C136.813 257.925 136.813 257.066 136.867 257.066C153.754 255.246 209.957 253.477 246.529 253.477C278.53 253.477 305.851 254.791 328.44 257.066C336.346 257.875 342.853 263.133 344.897 270.362L349.953 288.41C352.05 295.841 353.072 303.475 353.072 311.109V359.591L359.418 359.641V307.267C359.364 299.633 358.289 291.999 356.245 284.568Z" fill="#8E63AD"/>
</g>
<path d="M355.17 285.073L350.114 267.025C348.124 259.796 341.563 254.538 333.657 253.73C311.068 251.455 283.693 250.14 251.746 250.14C215.174 250.14 158.972 252.769 142.084 254.589C139.018 254.892 136.383 256.763 135.146 259.442L124.981 281.787C120.302 289.674 117.452 298.369 116.645 307.368L116.43 357.619L127.778 357.822C127.724 357.114 127.67 356.406 127.67 355.698C127.67 340.077 141.116 327.438 157.735 327.438C174.353 327.438 187.799 340.077 187.799 355.698C187.799 356.608 187.745 357.518 187.638 358.378L266.698 359.288C266.536 358.125 266.429 356.912 266.429 355.698C266.429 340.077 279.874 327.438 296.493 327.438C313.112 327.438 326.557 340.077 326.557 355.698C326.557 357.114 326.45 358.479 326.235 359.844L358.128 360.147V307.772C358.289 300.139 357.213 292.505 355.17 285.073Z" stroke="#523160" stroke-width="8" stroke-miterlimit="10" stroke-linecap="round" stroke-linejoin="round"/>
<path d="M296.601 378.903C282.994 378.903 271.915 368.488 271.915 355.698C271.915 342.908 282.994 332.493 296.601 332.493C310.208 332.493 321.287 342.908 321.287 355.698C321.287 368.488 310.208 378.903 296.601 378.903Z" fill="#5C3F6B"/>
<path d="M296.601 378.903C282.994 378.903 271.915 368.488 271.915 355.698C271.915 342.908 282.994 332.493 296.601 332.493C310.208 332.493 321.287 342.908 321.287 355.698C321.287 368.488 310.208 378.903 296.601 378.903Z" stroke="#523160" stroke-width="8" stroke-miterlimit="10" stroke-linecap="round" stroke-linejoin="round"/>
<path d="M296.601 367.831C289.501 367.831 283.693 362.371 283.693 355.698C283.693 349.025 289.501 343.565 296.601 343.565C303.7 343.565 309.508 349.025 309.508 355.698C309.508 362.371 303.7 367.831 296.601 367.831Z" fill="#FDC858"/>
<path d="M296.601 367.831C289.501 367.831 283.693 362.371 283.693 355.698C283.693 349.025 289.501 343.565 296.601 343.565C303.7 343.565 309.508 349.025 309.508 355.698C309.508 362.371 303.7 367.831 296.601 367.831Z" stroke="#523160" stroke-width="8" stroke-miterlimit="10" stroke-linecap="round" stroke-linejoin="round"/>
<path d="M296.601 359.692C294.234 359.692 292.352 357.872 292.352 355.698C292.352 353.474 294.288 351.704 296.601 351.704C298.967 351.704 300.849 353.524 300.849 355.698C300.849 357.872 298.967 359.692 296.601 359.692Z" fill="#FDC858"/>
<path d="M296.601 359.692C294.234 359.692 292.352 357.872 292.352 355.698C292.352 353.474 294.288 351.704 296.601 351.704C298.967 351.704 300.849 353.524 300.849 355.698C300.849 357.872 298.967 359.692 296.601 359.692Z" stroke="#523160" stroke-width="8" stroke-miterlimit="10" stroke-linecap="round" stroke-linejoin="round"/>
<path d="M116.43 362.118H110.568C108.147 362.118 106.211 360.298 106.211 358.023V341.694C106.211 339.419 108.147 337.599 110.568 337.599H116.43V362.118Z" fill="white"/>
<path d="M116.43 362.118H110.568C108.147 362.118 106.211 360.298 106.211 358.023V341.694C106.211 339.419 108.147 337.599 110.568 337.599H116.43V362.118Z" stroke="#523160" stroke-width="8" stroke-miterlimit="10" stroke-linecap="round" stroke-linejoin="round"/>
<path d="M117.29 331.027H115.139C113.525 331.027 112.235 329.814 112.235 328.297V315.76C112.235 314.243 113.525 313.03 115.139 313.03H117.29C118.904 313.03 120.194 314.243 120.194 315.76V328.297C120.194 329.814 118.904 331.027 117.29 331.027Z" fill="white"/>
<path d="M117.29 331.027H115.139C113.525 331.027 112.235 329.814 112.235 328.297V315.76C112.235 314.243 113.525 313.03 115.139 313.03H117.29C118.904 313.03 120.194 314.243 120.194 315.76V328.297C120.194 329.814 118.904 331.027 117.29 331.027Z" stroke="#523160" stroke-width="8" stroke-miterlimit="10" stroke-linecap="round" stroke-linejoin="round"/>
<path d="M362.377 366.011H339.25C336.561 366.011 334.41 363.989 334.41 361.461V357.922C334.41 355.395 336.561 353.373 339.25 353.373H362.377C365.066 353.373 367.217 355.395 367.217 357.922V361.461C367.217 363.938 365.012 366.011 362.377 366.011Z" fill="white"/>
<path d="M339.573 361.107C339.573 359.844 340.702 358.782 342.047 358.782H367.163V357.922C367.163 355.395 365.012 353.373 362.323 353.373H339.196C336.507 353.373 334.356 355.395 334.356 357.922V361.461C334.356 363.989 336.507 366.011 339.196 366.011H339.573V361.107Z" fill="#D8D8D8"/>
<path d="M362.377 366.011H339.25C336.561 366.011 334.41 363.989 334.41 361.461V357.922C334.41 355.395 336.561 353.373 339.25 353.373H362.377C365.066 353.373 367.217 355.395 367.217 357.922V361.461C367.217 363.938 365.012 366.011 362.377 366.011Z" stroke="#523160" stroke-width="8" stroke-miterlimit="10" stroke-linecap="round" stroke-linejoin="round"/>
<path d="M323.223 296.802H298.322C295.471 296.802 293.159 294.628 293.159 291.949V268.34C293.159 265.66 295.471 263.486 298.322 263.486H313.435C319.404 263.486 324.46 267.581 325.374 273.142L328.278 291.19C328.816 294.173 326.396 296.802 323.223 296.802Z" fill="#FDC858"/>
<path opacity="0.56" d="M303.7 274.154C303.7 271.474 306.013 269.3 308.863 269.3H323.976C321.878 265.812 317.898 263.537 313.435 263.537H298.322C295.471 263.537 293.159 265.711 293.159 268.39V291.999C293.159 294.679 295.471 296.853 298.322 296.853H303.7V274.154Z" fill="#FDC858"/>
<path d="M323.223 296.802H298.322C295.471 296.802 293.159 294.628 293.159 291.949V268.34C293.159 265.66 295.471 263.486 298.322 263.486H313.435C319.404 263.486 324.46 267.581 325.374 273.142L328.278 291.19C328.816 294.173 326.396 296.802 323.223 296.802Z" stroke="#523160" stroke-width="8" stroke-miterlimit="10" stroke-linecap="round" stroke-linejoin="round"/>
<path d="M276.594 296.296H221.628C218.778 296.296 216.465 294.122 216.465 291.443V267.834C216.465 265.155 218.778 262.981 221.628 262.981H276.594C279.444 262.981 281.757 265.155 281.757 267.834V291.443C281.703 294.122 279.444 296.296 276.594 296.296Z" fill="#FDC858"/>
<path opacity="0.56" d="M226.415 273.041C226.415 270.362 228.727 268.188 231.578 268.188H281.703V267.834C281.703 265.155 279.39 262.981 276.54 262.981H221.628C218.778 262.981 216.465 265.155 216.465 267.834V291.443C216.465 294.122 218.778 296.296 221.628 296.296H226.469V273.041H226.415Z" fill="#FDC858"/>
<path d="M276.594 296.296H221.628C218.778 296.296 216.465 294.122 216.465 291.443V267.834C216.465 265.155 218.778 262.981 221.628 262.981H276.594C279.444 262.981 281.757 265.155 281.757 267.834V291.443C281.703 294.122 279.444 296.296 276.594 296.296Z" stroke="#523160" stroke-width="8" stroke-miterlimit="10" stroke-linecap="round" stroke-linejoin="round"/>
<path d="M191.456 296.802H139.664C136.759 296.802 134.662 293.769 135.469 290.685L141.438 267.076C141.976 265.003 143.697 263.537 145.633 263.537H191.456C193.876 263.537 195.812 265.711 195.812 268.39V291.999C195.866 294.628 193.876 296.802 191.456 296.802Z" fill="#FDC858"/>
<path opacity="0.56" d="M145.149 295.639L151.119 272.03C151.657 269.957 153.378 268.491 155.314 268.491H195.812V268.34C195.812 265.66 193.876 263.486 191.456 263.486H145.633C143.697 263.486 141.976 264.952 141.438 267.025L135.469 290.634C134.716 293.718 136.759 296.751 139.664 296.751H144.988C145.042 296.397 145.096 296.044 145.149 295.639Z" fill="#FDC858"/>
<path d="M191.456 296.802H139.664C136.759 296.802 134.662 293.769 135.469 290.685L141.438 267.076C141.976 265.003 143.697 263.537 145.633 263.537H191.456C193.876 263.537 195.812 265.711 195.812 268.39V291.999C195.866 294.628 193.876 296.802 191.456 296.802Z" stroke="#523160" stroke-width="8" stroke-miterlimit="10" stroke-linecap="round" stroke-linejoin="round"/>
<path opacity="0.48" d="M196.781 252.516C202.912 252.516 207.86 257.167 207.86 262.93V358.58" stroke="#523160" stroke-width="2" stroke-miterlimit="10" stroke-linecap="round" stroke-linejoin="round"/>
<path d="M182.474 308.935H198.609" stroke="#523160" stroke-width="8" stroke-miterlimit="10" stroke-linecap="round" stroke-linejoin="round"/>
<path d="M266.214 307.772H279.982" stroke="#523160" stroke-width="8" stroke-miterlimit="10" stroke-linecap="round" stroke-linejoin="round"/>
<path d="M359.687 342.908H357.59V294.628H359.687C363.237 294.628 366.141 297.358 366.141 300.694V336.841C366.141 340.178 363.237 342.908 359.687 342.908Z" fill="#D8D8D8"/>
<path d="M359.687 342.908H357.59V294.628H359.687C363.237 294.628 366.141 297.358 366.141 300.694V336.841C366.141 340.178 363.237 342.908 359.687 342.908Z" stroke="#523160" stroke-width="8" stroke-miterlimit="10" stroke-linecap="round" stroke-linejoin="round"/>
<path d="M334.41 268.593H340.917" stroke="#523160" stroke-width="8" stroke-miterlimit="10" stroke-linecap="round" stroke-linejoin="round"/>
<path d="M337.099 277.288H343.606" stroke="#523160" stroke-width="8" stroke-miterlimit="10" stroke-linecap="round" stroke-linejoin="round"/>
<path d="M339.626 285.933H346.134" stroke="#523160" stroke-width="8" stroke-miterlimit="10" stroke-linecap="round" stroke-linejoin="round"/>
<path d="M340.702 294.628H347.264" stroke="#523160" stroke-width="8" stroke-miterlimit="10" stroke-linecap="round" stroke-linejoin="round"/>
<path d="M262.072 361.714H192.532C189.628 361.714 187.315 359.54 187.315 356.81C187.315 354.08 189.628 351.906 192.532 351.906H262.072C264.977 351.906 267.289 354.08 267.289 356.81C267.289 359.49 264.977 361.714 262.072 361.714Z" fill="white"/>
<path d="M262.072 361.714H192.532C189.628 361.714 187.315 359.54 187.315 356.81C187.315 354.08 189.628 351.906 192.532 351.906H262.072C264.977 351.906 267.289 354.08 267.289 356.81C267.289 359.49 264.977 361.714 262.072 361.714Z" fill="white"/>
<path d="M267.289 351.906H187.315V356.81H267.289V351.906Z" fill="#D8D8D8"/>
<path d="M262.072 361.714H192.532C189.628 361.714 187.315 359.54 187.315 356.81C187.315 354.08 189.628 351.906 192.532 351.906H262.072C264.977 351.906 267.289 354.08 267.289 356.81C267.289 359.49 264.977 361.714 262.072 361.714Z" stroke="#523160" stroke-width="8" stroke-miterlimit="10" stroke-linecap="round" stroke-linejoin="round"/>
<path d="M149.882 284.264L160.424 274.305" stroke="#523160" stroke-width="4" stroke-miterlimit="10" stroke-linecap="round" stroke-linejoin="round"/>
<path d="M158.81 285.175L173.009 271.727" stroke="#523160" stroke-width="4" stroke-miterlimit="10" stroke-linecap="round" stroke-linejoin="round"/>
<path d="M231.793 283.102L242.28 273.092" stroke="#523160" stroke-width="4" stroke-miterlimit="10" stroke-linecap="round" stroke-linejoin="round"/>
<path d="M240.721 284.011L254.919 270.564" stroke="#523160" stroke-width="4" stroke-miterlimit="10" stroke-linecap="round" stroke-linejoin="round"/>
<path d="M299.989 284.062L308.648 275.822" stroke="#523160" stroke-width="4" stroke-miterlimit="10" stroke-linecap="round" stroke-linejoin="round"/>
<path d="M307.357 284.821L319.028 273.698" stroke="#523160" stroke-width="4" stroke-miterlimit="10" stroke-linecap="round" stroke-linejoin="round"/>
<path d="M388.407 310.755L432.832 211.87C433.8 209.747 437.027 209.747 437.995 211.87L482.419 310.755C487.743 322.585 476.395 334.97 460.261 334.97H410.566C394.431 334.97 383.083 322.585 388.407 310.755Z" fill="#FDC858"/>
<path d="M388.407 310.755L432.832 211.87C433.8 209.747 437.027 209.747 437.995 211.87L482.419 310.755C487.743 322.585 476.395 334.97 460.261 334.97H410.566C394.431 334.97 383.083 322.585 388.407 310.755Z" fill="#FDC858"/>
<path opacity="0.56" d="M410.135 315.406L441.813 220.312L438.048 211.87C437.08 209.747 433.853 209.747 432.885 211.87L388.461 310.755C383.137 322.585 394.485 334.97 410.619 334.97H414.384C409.651 331.229 407.823 325.011 410.135 315.406Z" fill="#FDC858"/>
<path d="M435.413 378.903V230.07" stroke="#523160" stroke-width="8" stroke-miterlimit="10" stroke-linecap="round" stroke-linejoin="round"/>
<path d="M448.213 250.797L435.413 262.273L422.667 250.797" stroke="#523160" stroke-width="8" stroke-miterlimit="10" stroke-linecap="round" stroke-linejoin="round"/>
<path d="M450.633 272.637L435.413 286.337L420.193 272.637" stroke="#523160" stroke-width="8" stroke-miterlimit="10" stroke-linecap="round" stroke-linejoin="round"/>
<path d="M460.798 297.51L435.413 316.468L410.028 297.51" stroke="#523160" stroke-width="8" stroke-miterlimit="10" stroke-linecap="round" stroke-linejoin="round"/>
<path d="M292.836 81.1357L286.382 87.2023L279.928 81.1357" stroke="#D4C0E2" stroke-width="8" stroke-miterlimit="10" stroke-linecap="round" stroke-linejoin="round"/>
<path d="M340.864 89.0222L334.41 95.0888L327.902 89.0222" stroke="#D4C0E2" stroke-width="8" stroke-miterlimit="10" stroke-linecap="round" stroke-linejoin="round"/>
<path d="M443.158 121.63L436.65 127.697L430.196 121.63" stroke="#D4C0E2" stroke-width="8" stroke-miterlimit="10" stroke-linecap="round" stroke-linejoin="round"/>
<path d="M380.501 378.903H230.986" stroke="#523160" stroke-width="8" stroke-miterlimit="10" stroke-linecap="round" stroke-linejoin="round"/>
<path d="M232.976 378.903H214.852" stroke="#523160" stroke-width="8" stroke-miterlimit="10" stroke-linecap="round" stroke-linejoin="round"/>
</svg>
