<svg width="151" height="150" viewBox="0 0 151 150" fill="none" xmlns="http://www.w3.org/2000/svg">
<path d="M51.6062 85.3105C51.6062 95.2517 59.6651 103.311 69.6062 103.311L90.208 103.311C92.9694 103.311 95.208 101.072 95.208 98.3105L95.208 64.3105C95.208 58.7877 90.7308 54.3105 85.208 54.3105L56.6062 54.3106C53.8448 54.3106 51.6062 56.5491 51.6062 59.3106L51.6062 85.3105Z" fill="#DCD5DC"/>
<path d="M94.4949 99.271C93.2866 99.4174 92.0795 99.8478 90.9486 100.535C88.0081 102.271 86.1061 105.104 86.7006 106.861C87.2951 108.618 90.1609 108.635 93.1014 106.898C94.2431 106.244 95.2909 105.343 96.18 104.252C96.5951 103.723 96.7349 103.006 96.5369 102.423L95.7645 100.14C95.5684 99.555 95.0701 99.2145 94.4949 99.271Z" fill="#D5D6DB"/>
<path d="M87.4736 72.2727C86.5974 72.3791 85.7221 72.6913 84.902 73.1897C82.7704 74.4483 81.3906 76.5021 81.8213 77.7754C82.252 79.0487 84.3308 79.0603 86.4622 77.8018C87.29 77.3265 88.0497 76.6731 88.6946 75.8822C88.9952 75.4987 89.0964 74.9788 88.9529 74.556L88.3937 72.9029C88.2517 72.4792 87.8907 72.2319 87.4736 72.2727Z" fill="#D5D6DB"/>
<path d="M76.3477 71.9513C76.1603 71.896 75.9509 71.9277 75.7605 72.0397L70.7394 74.9851C70.3195 75.2305 70.1027 75.7936 70.2556 76.2429C70.2905 76.3459 70.3435 76.4374 70.4116 76.512L80.8225 87.9963L97.5655 78.1748L76.3477 71.9513Z" fill="#DF6951"/>
<path d="M124.934 75.3098L81.5549 104.058L56.7612 113.144L44.4984 114.304L43.5494 110.789L115.727 64.0359C117.879 62.635 120.178 61.9652 122.392 62.0946C123.361 62.1588 124.299 62.3888 125.186 62.7785C125.973 63.1147 126.7 63.6097 127.345 64.2487C128.065 64.9704 129.546 65.3253 129.904 66.5541C129.906 66.5526 130.471 71.985 124.934 75.3098V75.3098Z" fill="#E1E6E9"/>
<path d="M84.4421 96.9508L62.8504 131.813C62.5744 132.308 62.6405 132.926 62.9979 133.195C63.2171 133.36 63.5071 133.36 63.7684 133.196L68.6424 130.131C69.5799 129.541 70.4404 128.735 71.1708 127.762L110.978 79.4507L84.4421 96.9508Z" fill="#DF6951"/>
<path d="M37.6079 96.4296C37.3112 96.2595 36.9358 96.2714 36.6 96.461L32.3847 98.8428C31.8103 99.167 31.5176 99.9074 31.7306 100.497C31.7713 100.609 31.8286 100.711 31.9009 100.798L41.7644 112.755L54.1644 105.906L37.6079 96.4296Z" fill="#DF6951"/>
<path d="M46.7637 113.646L40.0834 123.322C39.9857 123.461 39.9842 123.656 40.0798 123.759C40.1488 123.832 40.253 123.84 40.3451 123.777L44.0963 121.396C44.1254 121.378 44.1527 121.353 44.1762 121.323L53.7166 109.237L46.7637 113.646Z" fill="#DF6951"/>
<path d="M123.357 62.3326C122.391 61.9725 121.371 61.7658 120.321 61.7167C119.121 63.3587 118.262 65.2812 117.83 67.2926C117.771 67.7011 117.999 68.0383 118.34 68.0458C118.446 68.048 118.555 68.0177 118.656 67.9576L125.721 63.7054C125.011 63.105 124.215 62.6428 123.357 62.3326Z" fill="#DF6951"/>
<path d="M108.748 70.4885L113.673 67.9388L117.114 76.3951L112.189 78.9448L108.748 70.4885Z" fill="#D5D6DB"/>
<path d="M106.138 74.053C105.552 74.3576 105.256 75.0682 105.476 75.64L105.833 76.5664C106.073 77.1274 106.736 77.3197 107.315 76.9957C107.865 76.6872 108.145 76.0177 107.954 75.4635L107.597 74.5371C107.377 73.9658 106.724 73.749 106.138 74.053V74.053Z" fill="#3A556A"/>
<path d="M102.245 76.8255C101.659 77.1301 101.363 77.8406 101.583 78.4124L101.94 79.3388C102.18 79.8999 102.843 80.0921 103.422 79.7682C103.972 79.4597 104.251 78.7902 104.061 78.236L103.704 77.3096C103.483 76.7384 102.83 76.5216 102.245 76.8255V76.8255Z" fill="#3A556A"/>
<path d="M98.3503 79.5988C97.7651 79.904 97.4695 80.6138 97.6897 81.1851L98.0467 82.1115C98.2867 82.6725 98.95 82.8648 99.5283 82.5409C100.079 82.2323 100.358 81.5629 100.167 81.0087L99.8102 80.0823C99.5898 79.5105 98.9363 79.2941 98.3503 79.5988V79.5988Z" fill="#3A556A"/>
<path d="M94.4573 82.371C93.872 82.6762 93.5764 83.386 93.7966 83.9574L94.1537 84.8837C94.3937 85.4448 95.0569 85.6371 95.6352 85.3131C96.1856 85.0046 96.465 84.3351 96.2742 83.7809L95.9172 82.8545C95.6965 82.2828 95.043 82.0664 94.4573 82.371V82.371Z" fill="#3A556A"/>
<path d="M90.5654 85.1435C89.9795 85.4486 89.6835 86.1581 89.9041 86.7292L90.2618 87.6552C90.4823 88.2261 91.1361 88.4422 91.7221 88.138C92.3081 87.8337 92.6043 87.1243 92.3838 86.5535L92.0262 85.6274C91.8064 85.0562 91.1529 84.8393 90.5667 85.1428C90.5662 85.1431 90.5659 85.1432 90.5654 85.1435Z" fill="#3A556A"/>
<path d="M86.6722 87.9159C86.0863 88.221 85.7903 88.9305 86.0109 89.5017L86.3686 90.4277C86.5891 90.9986 87.2429 91.2147 87.8289 90.9105C88.4149 90.6062 88.7112 89.8968 88.4907 89.3259L88.133 88.3999C87.9132 87.8286 87.2597 87.6117 86.6735 87.9153C86.673 87.9155 86.6725 87.9158 86.6722 87.9159Z" fill="#3A556A"/>
<path d="M82.7789 90.6884C82.1929 90.9935 81.897 91.703 82.1176 92.2741L82.4753 93.2001C82.6965 93.7706 83.3507 93.9857 83.9361 93.6808C84.5206 93.3765 84.8162 92.6686 84.597 92.0985L84.2393 91.1725C84.019 90.6012 83.3653 90.3845 82.7789 90.6884Z" fill="#3A556A"/>
<path d="M78.8857 93.4608C78.2998 93.7659 78.0038 94.4755 78.2244 95.0466L78.5821 95.9727C78.8033 96.5432 79.4575 96.7582 80.043 96.4533C80.6274 96.149 80.9231 95.441 80.7038 94.871L80.3461 93.9449C80.1258 93.3737 79.4721 93.1569 78.8857 93.4608Z" fill="#3A556A"/>
<path d="M74.9926 96.2333C74.4067 96.5384 74.1108 97.2479 74.3313 97.819L74.689 98.7451C74.9102 99.3156 75.5645 99.5306 76.1499 99.2257C76.7343 98.9214 77.03 98.2135 76.8107 97.6434L76.453 96.7174C76.2325 96.1463 75.5788 95.9295 74.9926 96.2333Z" fill="#3A556A"/>
<path d="M71.0983 99.0065C70.5124 99.3107 70.2161 100.02 70.4366 100.591L70.437 100.592L70.7947 101.518C71.0159 102.089 71.6702 102.304 72.2556 101.999C72.84 101.695 73.1357 100.987 72.9164 100.417L72.5588 99.4906C72.3384 98.9193 71.6847 98.7026 71.0983 99.0065Z" fill="#3A556A"/>
<path d="M67.2063 101.778C66.6203 102.082 66.324 102.792 66.5445 103.363L66.545 103.364L66.9026 104.29C67.1239 104.86 67.7781 105.076 68.3636 104.771C68.948 104.466 69.2437 103.758 69.0244 103.188L68.6667 102.262C68.4461 101.691 67.7924 101.474 67.2063 101.778Z" fill="#3A556A"/>
</svg>
