<svg width="38" height="38" viewBox="0 0 38 38" fill="none" xmlns="http://www.w3.org/2000/svg">
<ellipse cx="19.25" cy="18.5732" rx="18.75" ry="18.5732" fill="#5E6282"/>
<ellipse cx="19.25" cy="18.8221" rx="3.5" ry="3.46701" fill="#DFD7F9"/>
<path fill-rule="evenodd" clip-rule="evenodd" d="M16.1274 15.1944C17.034 14.2963 18.2394 13.7965 19.5215 13.7965C20.8036 13.7965 22.009 14.299 22.9156 15.197C23.4908 15.7668 23.9017 16.4516 24.1255 17.2157H27.7286V12.4185C27.7286 11.2931 26.8505 10.4232 25.7143 10.4232H13.3715C12.2353 10.4232 11.2715 11.2931 11.2715 12.4185V17.2157H14.9174C15.1412 16.4516 15.5522 15.7642 16.1274 15.1944ZM26.3572 13.9557C26.3572 14.2558 26.1116 14.4991 25.8086 14.4991H24.1629C23.8599 14.4991 23.6143 14.2559 23.6143 13.9557V12.3255C23.6143 12.0254 23.8599 11.7821 24.1629 11.7821H25.8086C26.1116 11.7821 26.3572 12.0254 26.3572 12.3255V13.9557Z" fill="#DFD7F9"/>
<path fill-rule="evenodd" clip-rule="evenodd" d="M22.9156 21.9191C22.009 22.8172 20.8036 23.3064 19.5215 23.3064C18.2394 23.3064 17.034 22.8199 16.1274 21.9218C15.2225 21.0254 14.7235 19.8058 14.7216 18.5747H11.2715V24.6455C11.2715 25.7709 12.2353 26.7257 13.3715 26.7257H25.7143C26.8505 26.7257 27.7286 25.7709 27.7286 24.6455V18.5747H24.3214C24.3196 19.8058 23.8205 21.0227 22.9156 21.9191V21.9191Z" fill="#DFD7F9"/>
</svg>
