<svg width="38" height="38" viewBox="0 0 38 38" fill="none" xmlns="http://www.w3.org/2000/svg">
<ellipse cx="18.75" cy="18.5732" rx="18.75" ry="18.5732" fill="#5E6282"/>
<path fill-rule="evenodd" clip-rule="evenodd" d="M29 12.7752C28.2626 13.093 27.4743 13.3076 26.6436 13.4067C27.4912 12.9114 28.1439 12.1272 28.449 11.1944C27.6565 11.6525 26.7792 11.9868 25.8426 12.1643C25.0924 11.3842 24.0244 10.8972 22.8462 10.8972C20.5787 10.8972 18.7436 12.6885 18.7436 14.8967C18.7436 15.2103 18.7775 15.5158 18.8495 15.8088C15.4378 15.6437 12.4117 14.0505 10.3901 11.6278C10.0384 12.218 9.83492 12.9073 9.83492 13.6378C9.83492 15.0246 10.5639 16.2504 11.6658 16.9686C10.9877 16.9521 10.352 16.7705 9.80102 16.4692C9.80102 16.4857 9.80102 16.5022 9.80102 16.5187C9.80102 18.4586 11.2166 20.0724 13.0941 20.4397C12.7508 20.5305 12.3863 20.5801 12.0134 20.5801C11.7506 20.5801 11.4921 20.5553 11.242 20.5058C11.7633 22.0948 13.2806 23.2505 15.0776 23.2835C13.6747 24.3566 11.9032 24.9964 9.97902 24.9964C9.64844 24.9964 9.3221 24.9757 9 24.9386C10.8097 26.086 12.9669 26.7464 15.281 26.7464C22.8377 26.7464 26.9657 20.6502 26.9657 15.3631C26.9657 15.1897 26.9614 15.0164 26.953 14.8471C27.754 14.2817 28.449 13.58 29 12.7752V12.7752Z" fill="#DFD7F9"/>
</svg>
